<svg xmlns="http://www.w3.org/2000/svg" xmlns:xlink="http://www.w3.org/1999/xlink" contentStyleType="text/css" height="399px" preserveAspectRatio="none" style="width:609px;height:399px;background:#FFFFFF;" version="1.1" viewBox="0 0 609 399" width="609px" zoomAndPan="magnify"><defs/><g><line style="stroke:#181818;stroke-width:0.5;stroke-dasharray:5.0,5.0;" x1="30" x2="30" y1="36.2969" y2="363.8906"/><line style="stroke:#181818;stroke-width:0.5;stroke-dasharray:5.0,5.0;" x1="295" x2="295" y1="36.2969" y2="363.8906"/><line style="stroke:#181818;stroke-width:0.5;stroke-dasharray:5.0,5.0;" x1="559" x2="559" y1="36.2969" y2="363.8906"/><rect fill="#E2E2F0" height="30.2969" rx="2.5" ry="2.5" style="stroke:#181818;stroke-width:0.5;" width="50" x="5" y="5"/><text fill="#000000" font-family="sans-serif" font-size="14" lengthAdjust="spacing" textLength="36" x="12" y="24.9951">Edge</text><rect fill="#E2E2F0" height="30.2969" rx="2.5" ry="2.5" style="stroke:#181818;stroke-width:0.5;" width="50" x="5" y="362.8906"/><text fill="#000000" font-family="sans-serif" font-size="14" lengthAdjust="spacing" textLength="36" x="12" y="382.8857">Edge</text><rect fill="#E2E2F0" height="30.2969" rx="2.5" ry="2.5" style="stroke:#181818;stroke-width:0.5;" width="74" x="258" y="5"/><text fill="#000000" font-family="sans-serif" font-size="14" lengthAdjust="spacing" textLength="60" x="265" y="24.9951">Mediator</text><rect fill="#E2E2F0" height="30.2969" rx="2.5" ry="2.5" style="stroke:#181818;stroke-width:0.5;" width="74" x="258" y="362.8906"/><text fill="#000000" font-family="sans-serif" font-size="14" lengthAdjust="spacing" textLength="60" x="265" y="382.8857">Mediator</text><rect fill="#E2E2F0" height="30.2969" rx="2.5" ry="2.5" style="stroke:#181818;stroke-width:0.5;" width="88" x="515" y="5"/><text fill="#000000" font-family="sans-serif" font-size="14" lengthAdjust="spacing" textLength="74" x="522" y="24.9951">3rd Parties</text><rect fill="#E2E2F0" height="30.2969" rx="2.5" ry="2.5" style="stroke:#181818;stroke-width:0.5;" width="88" x="515" y="362.8906"/><text fill="#000000" font-family="sans-serif" font-size="14" lengthAdjust="spacing" textLength="74" x="522" y="382.8857">3rd Parties</text><polygon fill="#181818" points="283,63.4297,293,67.4297,283,71.4297,287,67.4297" style="stroke:#181818;stroke-width:1.0;"/><line style="stroke:#181818;stroke-width:1.0;" x1="30" x2="289" y1="67.4297" y2="67.4297"/><text fill="#000000" font-family="sans-serif" font-size="13" lengthAdjust="spacing" textLength="120" x="37" y="62.3638">Request mediation</text><polygon fill="#181818" points="41,92.5625,31,96.5625,41,100.5625,37,96.5625" style="stroke:#181818;stroke-width:1.0;"/><line style="stroke:#181818;stroke-width:1.0;" x1="35" x2="294" y1="96.5625" y2="96.5625"/><text fill="#000000" font-family="sans-serif" font-size="13" lengthAdjust="spacing" textLength="104" x="47" y="91.4966">Grant mediation</text><polygon fill="#181818" points="283,136.8281,293,140.8281,283,144.8281,287,140.8281" style="stroke:#181818;stroke-width:1.0;"/><line style="stroke:#181818;stroke-width:1.0;" x1="30" x2="289" y1="140.8281" y2="140.8281"/><text fill="#000000" font-family="sans-serif" font-size="13" lengthAdjust="spacing" textLength="216" x="37" y="120.6294">Inform the Mediator what DID(s) it</text><text fill="#000000" font-family="sans-serif" font-size="13" lengthAdjust="spacing" textLength="120" x="37" y="135.7622">should mediate for</text><polygon fill="#181818" points="41,165.9609,31,169.9609,41,173.9609,37,169.9609" style="stroke:#181818;stroke-width:1.0;"/><line style="stroke:#181818;stroke-width:1.0;" x1="35" x2="294" y1="169.9609" y2="169.9609"/><text fill="#000000" font-family="sans-serif" font-size="13" lengthAdjust="spacing" textLength="164" x="47" y="164.895">Confirm mediated DID list</text><polygon fill="#181818" points="41,195.0938,31,199.0938,41,203.0938,37,199.0938" style="stroke:#181818;stroke-width:1.0;"/><line style="stroke:#181818;stroke-width:1.0;stroke-dasharray:2.0,2.0;" x1="35" x2="558" y1="199.0938" y2="199.0938"/><text fill="#000000" font-family="sans-serif" font-size="13" lengthAdjust="spacing" textLength="190" x="47" y="194.0278">Attempt to form a connection</text><polygon fill="#181818" points="547,224.2266,557,228.2266,547,232.2266,551,228.2266" style="stroke:#181818;stroke-width:1.0;"/><line style="stroke:#181818;stroke-width:1.0;" x1="30" x2="553" y1="228.2266" y2="228.2266"/><text fill="#000000" font-family="sans-serif" font-size="13" lengthAdjust="spacing" textLength="214" x="37" y="223.1606">Report the Mediator's information</text><polygon fill="#181818" points="306,268.4922,296,272.4922,306,276.4922,302,272.4922" style="stroke:#181818;stroke-width:1.0;"/><line style="stroke:#181818;stroke-width:1.0;" x1="300" x2="558" y1="272.4922" y2="272.4922"/><text fill="#000000" font-family="sans-serif" font-size="13" lengthAdjust="spacing" textLength="203" x="312" y="252.2935">Wrap messages with an internal</text><text fill="#000000" font-family="sans-serif" font-size="13" lengthAdjust="spacing" textLength="240" x="312" y="267.4263">payload addressed to the Edge agent</text><polygon fill="#181818" points="283,297.625,293,301.625,283,305.625,287,301.625" style="stroke:#181818;stroke-width:1.0;"/><line style="stroke:#181818;stroke-width:1.0;" x1="30" x2="289" y1="301.625" y2="301.625"/><text fill="#000000" font-family="sans-serif" font-size="13" lengthAdjust="spacing" textLength="114" x="37" y="296.5591">Ask for messages</text><polygon fill="#181818" points="41,341.8906,31,345.8906,41,349.8906,37,345.8906" style="stroke:#181818;stroke-width:1.0;"/><line style="stroke:#181818;stroke-width:1.0;" x1="35" x2="294" y1="345.8906" y2="345.8906"/><text fill="#000000" font-family="sans-serif" font-size="13" lengthAdjust="spacing" textLength="206" x="47" y="325.6919">Send along the nested payloads</text><text fill="#000000" font-family="sans-serif" font-size="13" lengthAdjust="spacing" textLength="241" x="47" y="340.8247">that are addressed to the Edge agent</text><!--SRC=[VP0nJyD038Nt_0gh2p1qojO1gQ88TQY4O63fOkNSvCJ5T_XSLVnxVDUGq8NLp- -zpquewZkVa1MUNK-06QX9VwO7SXurIb7aHbcruk2r32YlYjms3S7w4MG3R_HrfgmmLhUFt4XHQ0ClKhpB_DUnvrEK4NIWfV8oeC9klxlF3-3ro7c8v-0cCu4PvjYdo2Tl_abpnGR16qBJmlgwirMbCIbeXDg5q4LcwXQEjf2dA7h3SPV1LxfAN0ChyeTWiiASiQSC5wy38DkgaZ06E7B2xn3H0JedjcPKLbsIhw_kYNM-Vvi_2zMSDr_sJcm98N9VhMnljQ0fEbkBbY-Xq7yrFm00]--></g></svg>